<?xml version="1.0" encoding="UTF-8" standalone="no"?>
<!-- Generator: Adobe Illustrator 25.0.0, SVG Export Plug-In . SVG Version: 6.00 Build 0)  -->

<svg
   version="1.1"
   id="Layer_2"
   inkscape:version="1.2.2 (732a01da63, 2022-12-09)"
   sodipodi:docname="TUDO_logo_schild.svg"
   x="0px"
   y="0px"
   viewBox="0 0 3460.3817 1889.806"
   xml:space="preserve"
   width="915.55933mm"
   height="500.01114mm"
   xmlns:inkscape="http://www.inkscape.org/namespaces/inkscape"
   xmlns:sodipodi="http://sodipodi.sourceforge.net/DTD/sodipodi-0.dtd"
   xmlns="http://www.w3.org/2000/svg"
   xmlns:svg="http://www.w3.org/2000/svg"><defs
   id="defs14" />
<sodipodi:namedview
   bordercolor="#666666"
   borderopacity="1"
   gridtolerance="10"
   guidetolerance="10"
   id="namedview32"
   inkscape:current-layer="Layer_2"
   inkscape:cx="1225.2947"
   inkscape:cy="635.67922"
   inkscape:pagecheckerboard="true"
   inkscape:pageopacity="0"
   inkscape:pageshadow="2"
   inkscape:window-height="1410"
   inkscape:window-maximized="1"
   inkscape:window-width="2256"
   inkscape:window-x="-11"
   inkscape:window-y="-11"
   inkscape:zoom="0.21709063"
   objecttolerance="10"
   pagecolor="#ffffff"
   showgrid="false"
   inkscape:showpageshadow="2"
   inkscape:deskcolor="#d1d1d1"
   inkscape:document-units="mm">
	</sodipodi:namedview>
<path
   d="M 2210.9299,705.10941 1675.0309,542.70277 1512.6242,365.64941 1283.8764,482.39263 186.66189,211.42772 l 167.14542,618.60996 218.40897,130.09777 4.7386,715.96765 410.10926,-155.5139 c 27.13946,62.4641 128.37446,40.494 126.22066,-28.8627 0.4308,-77.5417 -113.72796,-90.4654 -130.95936,-15.5084 L 619.60297,1614.07 614.86422,935.58055 390.42414,802.03655 247.40287,270.87631 1289.0458,528.05605 l 214.1011,-109.41984 148.1907,161.54504 556.1459,168.86847 c 18.5238,74.0953 130.9593,60.31017 130.9593,-16.80066 1.7231,-69.78752 -101.2349,-90.8961 -127.5129,-27.13965 z M 1047.3743,1468.0333 c 30.5859,-0.8617 30.5859,47.3864 0,46.9555 -30.5859,0.8618 -30.5859,-47.3864 0,-46.9555 z M 2271.6708,755.94227 c -30.5858,0.86168 -30.5858,-47.38648 0,-46.95587 30.586,-0.86144 30.586,47.38669 0,46.95587 z"
   id="path3"
   style="fill:#000000;fill-opacity:1;stroke:none;stroke-width:1.62817;stroke-dasharray:none;stroke-opacity:1"
   sodipodi:nodetypes="ccccccccccccccccccccccccccc" />
<path
   d="m 1588.4427,1505.081 c -168.4377,56.0022 -397.1856,-65.4798 -467.4038,-233.4866 -47.3867,-124.4974 -32.3091,-288.62735 -12.9237,-399.7705 63.7565,-15.0775 127.0822,-29.72414 190.8387,-44.80177 10.3389,160.25262 41.3555,372.63077 134.4055,432.94097 73.2339,34.8938 174.8994,-8.1849 193.8542,-91.7577 3.0155,-137.8518 -286.9042,-209.79315 -290.3505,-542.79155 23.2625,1.29236 193.8543,-68.92599 208.9317,-86.15743 0,0 147.3292,460.94218 178.3459,627.22598 30.5858,166.2836 49.1096,276.9959 -135.698,338.5986 z"
   id="path5"
   style="fill:#000000;fill-opacity:1;stroke:none;stroke-width:4.30789" />
<path
   d="m 1262.7677,631.87568 c -18.5237,18.52384 -49.1097,184.37679 -49.1097,184.37679 l -190.4078,18.52385 c 6.0311,67.63351 -18.5241,535.03738 -18.5241,535.03738 l -184.80726,73.6646 C 782.87108,896.37882 696.71365,754.6499 696.71365,754.6499 L 488.21276,699.50922 352.94567,441.03716 c 0,0.43082 928.34593,172.3146 909.82203,190.83852 z"
   id="path7"
   style="fill:#000000;fill-opacity:1;stroke:none;stroke-width:4.30789" />
<path
   d="M 3244.3877,188.16522 2529.2814,426.8212 c -39.2016,-40.92479 -114.5894,-9.47735 -112.8662,47.38652 1.2924,92.61907 143.452,83.14176 132.2516,-8.61571 l 656.9503,-219.70134 79.6953,909.39113 -406.232,515.6521 -586.7318,-184.8076 -886.9904,137.4211 c -22.8316,-67.6336 -130.5284,-49.5406 -128.8052,23.2623 -0.4314,74.957 108.1275,90.8961 129.6669,20.2469 l 882.6824,-136.5593 605.6866,190.4078 435.5253,-551.8381 z m -761.2004,309.73576 c -30.5859,0.86162 -30.5859,-47.38654 0,-46.95572 30.5857,-0.43027 30.5857,47.81734 0,46.95572 z M 1342.8941,1670.503 c -30.5858,0.8616 -30.5858,-47.3865 0,-46.9556 30.586,-0.8618 30.586,47.3865 0,46.9556 z"
   id="path9"
   style="fill:#000000;fill-opacity:1;stroke:none;stroke-width:1.62817;stroke-dasharray:none;stroke-opacity:1"
   sodipodi:nodetypes="ccccccccccccccccccccc" />
<path
   d="m 3094.0431,782.22031 c -49.9712,-289.48872 -81.8496,-292.07345 -184.3769,-305.85858 -208.9315,8.18491 -414.8476,211.5162 -518.6675,461.80342 -130.5283,-95.63474 -423.4634,-72.80301 -715.537,-220.99366 l 167.1453,744.83071 c 0,0 76.6802,27.1395 144.3137,-18.0932 73.2336,-49.9712 304.1355,-195.1463 355.3991,-267.0878 -27.1394,516.9444 946.0083,504.0208 751.7233,-394.60089 z M 2039.0458,1188.8833 1949.8729,936.01115 c 182.223,18.9548 541.9302,136.12885 89.1729,252.87215 z m 847.7887,-67.6337 v 0 c -80.9879,49.9714 -312.3206,-32.3089 -313.182,-148.19055 2.5847,-84.86514 96.927,-157.66815 182.2229,-161.11439 140.4365,-4.73868 203.3315,246.41014 130.9591,309.30494 z"
   id="path11"
   style="fill:#000000;fill-opacity:1;stroke:none;stroke-width:4.30789" />
<path
   id="path1024"
   style="fill:none;stroke:#ff0000;stroke-width:0.377953;stroke-dasharray:none;stroke-opacity:1"
   d="m 1259.6595,1818.7375 1019.2214,-150.6621 664.6507,221.5084 516.6558,-681.5949 L 3358.3805,0.25481473 2375.3079,326.04823 2058.4591,531.63454 1791.2029,443.25175 1554.5115,198.16491 1273.8422,341.76441 0.25574932,4.7925284 211.74215,907.42626 l 223.9052,142.54824 -5.51165,818.3202 550.79994,-202.287 z"
   sodipodi:nodetypes="cccccccccccccccc" /></svg>
